<svg width="512" height="512" viewBox="0 0 512 512" xmlns="http://www.w3.org/2000/svg">
  <rect width="512" height="512" rx="115" fill="#2E6BE6"/>
  <path fill="#FFFFFF" d="M53 320a92 92 0 0 0 92 92h231a77 77 0 0 0 27.3-149 61 61 0 0 0-77.2-79 108 108 0 0 0-210.4 48A92 92 0 0 0 53 320z"/>
  <path d="M218 350V284" stroke="#2E6BE6" stroke-width="27" stroke-linecap="round" fill="none"/>
  <path d="M192 306l26-28 26 28" stroke="#2E6BE6" stroke-width="27" stroke-linecap="round" stroke-linejoin="round" fill="none"/>
  <path d="M294 272v66" stroke="#2E6BE6" stroke-width="27" stroke-linecap="round" fill="none"/>
  <path d="M268 316l26 28 26-28" stroke="#2E6BE6" stroke-width="27" stroke-linecap="round" stroke-linejoin="round" fill="none"/>
</svg>
